<svg width="41" height="16" viewBox="0 0 41 16" fill="none" xmlns="http://www.w3.org/2000/svg">
<path fill-rule="evenodd" clip-rule="evenodd" d="M10.341 6.71076V6.20214L10.0977 6.71076H7.99106L7.7265 6.1649V6.71076H3.78878L3.32374 5.60946H2.53447L2.04179 6.71076H0V3.3862L1.49659 2.4986e-05H4.36228L4.76488 0.959537V0.00701686H8.26927L9.04 1.62263L9.79431 2.4986e-05H20.858C20.858 2.4986e-05 21.4379 -0.0079425 21.8198 0.260675L21.8174 2.4986e-05H24.6047V0.366854C24.6047 0.366854 25.1062 2.4986e-05 25.847 2.4986e-05H30.7655L31.1974 0.973684V2.4986e-05H34.3491L34.9211 0.973684V2.4986e-05H37.9343V6.7171H34.8387L34.1114 5.54604V6.71076H30.2641L29.7229 5.51124H28.9688L28.4615 6.71076H26.133C26.133 6.71076 25.2647 6.6997 24.6133 6.23368V6.71076H19.9777V5.1436C19.9777 4.91612 19.8034 4.93206 19.8034 4.93206H19.6338V6.71076H10.341Z" fill="white"/>
<path fill-rule="evenodd" clip-rule="evenodd" d="M8.02734 8.16528H14.1184L14.9979 9.16041L15.8971 8.16528H20.5804C20.5804 8.16528 21.0202 8.17634 21.4377 8.39894V8.16528H25.6083C26.1376 8.16528 26.582 8.42984 26.582 8.42984V8.16528H31.9428V8.40935C31.9428 8.40935 32.3247 8.16528 32.8381 8.16528H36.3304V8.40935C36.3304 8.40935 36.7703 8.16528 37.2353 8.16528H39.9774V14.4949C39.9774 14.4949 39.6168 14.903 38.8712 14.903H35.2561V14.7017C35.2561 14.7017 34.9122 14.903 34.3877 14.903H24.7844V13.2669C24.7844 13.1061 24.7147 13.0768 24.5712 13.0768H24.4389V14.903H21.4377V13.0879C21.4377 13.0879 21.1049 13.2669 20.5488 13.2669H19.4696V14.903H15.7704L14.929 13.8762L14.029 14.903H8.02734V8.16528Z" fill="white"/>
<path fill-rule="evenodd" clip-rule="evenodd" d="M27.2256 9.17554H31.0484V10.2007H28.3957V11.0944H30.9739V11.9977H28.3957V12.9381H31.0484V13.938H27.2256V9.17554Z" fill="#0077A6"/>
<path fill-rule="evenodd" clip-rule="evenodd" d="M38.4336 11.0311C39.87 11.1047 39.9903 11.8226 39.9903 12.588C39.9903 13.48 39.2567 13.9594 38.4913 13.9594H36.0352V12.9382H37.9487C38.2736 12.9382 38.7568 12.9382 38.7568 12.481C38.7568 12.2639 38.6721 12.1252 38.3266 12.0888C38.1728 12.0665 37.6048 12.0348 37.5185 12.0334C36.2207 11.9992 35.918 11.3535 35.918 10.5675C35.918 9.67465 36.5456 9.18652 37.3118 9.18652H39.7669V10.207H37.97C37.5612 10.2111 37.1199 10.1587 37.1199 10.6207C37.1199 10.913 37.3378 10.9716 37.6144 10.9986C37.7102 10.9986 38.3481 11.0319 38.4336 11.0311Z" fill="#0077A6"/>
<path fill-rule="evenodd" clip-rule="evenodd" d="M34.0307 11.0311C35.468 11.1047 35.5883 11.8226 35.5883 12.588C35.5883 13.48 34.8555 13.9594 34.0893 13.9594H31.634V12.9382H33.5473C33.8716 12.9382 34.3556 12.9382 34.3556 12.481C34.3556 12.2639 34.2701 12.1252 33.9246 12.0888C33.7707 12.0665 33.202 12.0348 33.1173 12.0334C31.8179 11.9992 31.5176 11.3535 31.5176 10.5675C31.5176 9.67465 32.1442 9.18652 32.9096 9.18652H35.3649V10.207H33.5688C33.1592 10.2111 32.7179 10.1587 32.7179 10.6207C32.7179 10.913 32.9366 10.9716 33.2132 10.9986C33.3081 10.9986 33.946 11.0319 34.0307 11.0311Z" fill="#0077A6"/>
<path fill-rule="evenodd" clip-rule="evenodd" d="M19.7732 11.3511H18.3169V10.2079H19.7779C20.2675 10.2079 20.4219 10.5216 20.4219 10.7554C20.4219 11.0747 20.2515 11.3511 19.7732 11.3511ZM17.1372 13.4911L15.4575 11.5033L17.1372 9.64302V13.4911ZM12.6678 12.9381H9.97169V11.9977H12.5506V11.0944H9.97169V10.2007L12.8153 10.2071L13.9536 11.5033L12.6678 12.9381ZM20.167 9.18594H16.0637L14.7237 10.6635L13.4278 9.17554H8.81885V13.938H13.2779L14.6818 12.3645L16.0525 13.9492H18.2962V12.332H19.8691C20.4751 12.332 21.5811 12.3115 21.5811 10.642C21.5811 9.45131 20.7413 9.18594 20.167 9.18594Z" fill="#0077A6"/>
<path fill-rule="evenodd" clip-rule="evenodd" d="M24.8059 11.2871H23.3496V10.2081H24.8104C25.2994 10.2081 25.4538 10.5217 25.4538 10.7554C25.4538 11.0739 25.2842 11.2871 24.8059 11.2871ZM25.8151 11.7799C26.4538 11.4614 26.6234 11.036 26.6234 10.4616C26.6234 9.44189 25.7946 9.18677 25.2202 9.18677H22.1802V13.9492H23.3496V12.2687H24.8803C25.2842 12.2687 25.4436 12.6728 25.4538 13.0768L25.4849 13.9492H26.6234L26.5805 12.9707C26.5805 12.2047 26.369 11.8432 25.8151 11.7799Z" fill="#0077A6"/>
<path fill-rule="evenodd" clip-rule="evenodd" d="M22.6484 5.72207H23.8179V0.954102H22.6484V5.72207Z" fill="#0077A6"/>
<path fill-rule="evenodd" clip-rule="evenodd" d="M13.0767 0.959473H16.898V1.98468H14.2461V2.87833H16.8235V3.78159H14.2461V4.72207H16.898V5.72191H13.0767V0.959473Z" fill="#0077A6"/>
<path fill-rule="evenodd" clip-rule="evenodd" d="M20.2178 3.0598H18.7616V1.98061H20.2233C20.7115 1.98061 20.8668 2.29443 20.8668 2.52809C20.8668 2.84744 20.6964 3.0598 20.2178 3.0598ZM21.2281 3.55264C21.8666 3.23492 22.0362 2.80874 22.0362 2.23427C22.0362 1.21378 21.2066 0.959473 20.6331 0.959473H17.5923V5.72191H18.7616V4.04224H20.2923C20.6964 4.04224 20.8565 4.44549 20.8668 4.84955L20.8985 5.72191H22.0362L21.9942 4.74338C21.9942 3.97801 21.7809 3.61671 21.2281 3.55264Z" fill="#0077A6"/>
<path fill-rule="evenodd" clip-rule="evenodd" d="M2.14131 3.63102L2.83855 1.96646L3.56521 3.63102H2.14131ZM10.3797 0.959473L8.94489 4.15394L7.51464 0.959473H5.68131V5.54598L3.6405 0.959473H2.09302L0.00927734 5.72191H1.24294L1.6992 4.65866H4.03334L4.49594 5.72191H6.84993V2.18663L8.41318 5.72191H9.47643L11.0761 2.24533V5.72191H12.2455V0.959473H10.3797Z" fill="#0077A6"/>
<path fill-rule="evenodd" clip-rule="evenodd" d="M28.7015 3.63345L29.3979 1.96874L30.1315 3.63345H28.7015ZM35.8837 0.957031V4.25459L33.9117 0.957031H32.1836V5.42955L30.1917 0.95947H28.6444L27.0337 4.64841C27.0337 4.64841 26.3532 4.64841 26.2842 4.63183C26.0029 4.57394 25.5623 4.37508 25.5569 3.53524V3.18971C25.5569 2.07345 26.1631 1.99183 26.9402 1.99183H27.662V0.957031H26.1353C25.6036 0.957031 24.4468 1.36272 24.4081 3.31882C24.3811 4.63736 24.9555 5.72435 26.2524 5.72435H27.7943L28.2507 4.6611H30.5839L31.0467 5.72435H33.3538V2.23671L35.4582 5.72435H37.053V0.957031H35.8837Z" fill="#0077A6"/>
</svg>
