<svg width="16" height="16" viewBox="0 0 16 16" fill="none" xmlns="http://www.w3.org/2000/svg">
<path fill-rule="evenodd" clip-rule="evenodd" d="M7.99943 0C10.1378 0 12.1455 0.834171 13.6571 2.34506C15.1688 3.85595 16 5.86935 16 8.00335C16 10.1374 15.1688 12.1474 13.6571 13.6583C12.1455 15.1692 10.1378 16 7.99943 16C6.67214 16 5.36832 15.6717 4.20862 15.0486C3.34723 15.6415 2.3149 15.9799 1.33284 15.9799C1.13509 15.9799 0.944039 15.9631 0.766397 15.9363C0.44128 15.8861 0.193252 15.6348 0.142976 15.3099C0.0960515 14.9883 0.260286 14.6734 0.551886 14.5293C1.03118 14.2948 1.4535 13.8057 1.81214 13.072C-0.785453 9.91625 -0.574294 5.25963 2.34171 2.34506C3.85334 0.834171 5.86102 0 7.99943 0ZM7.99943 15.0921C9.89315 15.0921 11.6763 14.3551 13.017 13.0151C15.7855 10.2513 15.7855 5.74874 13.017 2.97822C11.6763 1.63819 9.89315 0.901173 7.99943 0.901173C6.1057 0.901173 4.32258 1.63819 2.98189 2.97822C0.334024 5.62479 0.203307 9.8928 2.68359 12.6935C2.8009 12.8275 2.83106 13.0151 2.76068 13.1759C2.38193 14.0436 1.92945 14.6667 1.38982 15.0687C1.8423 15.0586 2.87463 14.9414 3.90026 14.1474C3.9807 14.0871 4.08126 14.0536 4.17846 14.0536C4.25555 14.0536 4.33599 14.0771 4.40637 14.1173C5.48898 14.7538 6.73247 15.0921 7.99943 15.0921Z" fill="#C4A676"/>
</svg>
