<svg width="40" height="7" viewBox="0 0 40 7" fill="none" xmlns="http://www.w3.org/2000/svg">
<path d="M24.5681 3.44896C24.5718 2.59242 24.2506 1.73465 23.6043 1.08825C22.9566 0.440512 22.0967 0.119623 21.2384 0.124778C21.2343 0.124778 21.2303 0.124512 21.226 0.124512C19.3622 0.124512 17.8838 1.60256 17.8838 3.46691C17.8838 5.31287 19.3804 6.80904 21.226 6.80904C23.0904 6.80904 24.5686 5.33073 24.5686 3.46691C24.5686 3.46078 24.5681 3.455 24.5681 3.44896Z" fill="#F26E21"/>
<path d="M17.2618 4.88068C16.7623 5.38077 16.3012 5.57615 15.8046 5.58673C14.5947 5.57588 13.7052 4.67988 13.7052 3.40246C13.7052 2.75944 13.9487 2.23241 14.3344 1.78219C14.696 1.43881 15.162 1.21695 15.6978 1.21695C16.2762 1.21695 16.7264 1.40975 17.2402 1.92397V0.445659C16.7264 0.188681 16.2761 0.0600586 15.6978 0.0600586C14.8808 0.118459 14.1104 0.448592 13.5194 0.966992C13.3491 1.12024 13.1859 1.28939 13.0475 1.48299C12.6159 2.04246 12.355 2.72753 12.355 3.46699C12.355 5.33073 13.8338 6.74477 15.6977 6.74477C15.7068 6.74477 15.7158 6.74397 15.7246 6.74388C15.7371 6.74406 15.7495 6.74477 15.7619 6.74477C16.276 6.74477 16.7264 6.6165 17.3048 6.35935L17.2618 4.88068C17.2401 4.90237 17.2833 4.92255 17.2618 4.94308V4.88068Z" fill="#E7E8E3"/>
<path d="M28.7881 0.980628L27.3324 4.55947L25.6611 0.316895H24.3115L26.9467 6.80889H27.6537L30.4177 0.316895H29.0681L28.7881 0.980628Z" fill="#E7E8E3"/>
<path d="M30.9316 3.14516V6.61636H34.4028H34.4668V5.58756H33.3741H32.2172V4.43085V3.85254H34.4028V2.75947H32.2172V1.40978H34.4668V0.316895H30.9316V3.14516Z" fill="#E7E8E3"/>
<path fill-rule="evenodd" clip-rule="evenodd" d="M0.0786133 0.316895H1.8787C3.93515 0.316895 5.28519 1.60241 5.2851 3.46694C5.2851 4.43094 4.83497 5.33058 4.12804 5.90907C3.54955 6.35903 2.84261 6.61636 1.87861 6.61636H0.0786133V0.316895ZM1.68564 5.58756C2.45701 5.58756 2.97124 5.39494 3.35692 5.07369C3.80697 4.68765 4.06404 4.04516 3.99977 3.46667C3.99977 2.88801 3.74252 2.30916 3.29266 1.92374C2.90688 1.53823 2.39266 1.40969 1.62128 1.40969H1.29995V5.58756H1.68564Z" fill="#E7E8E3"/>
<path d="M5.86426 0.31665H7.0855V6.61594H5.86426V0.31665Z" fill="#E7E8E3"/>
<path d="M10.1704 2.75966C9.39921 2.5026 9.20614 2.30962 9.20614 1.98837C9.20614 1.60268 9.59183 1.28135 10.1061 1.28135C10.4917 1.28135 10.8131 1.40997 11.1345 1.79566L11.7774 0.960107C11.263 0.509974 10.6205 0.253174 9.91343 0.253174C8.82045 0.253174 7.92054 1.02455 7.92054 2.05264C7.92054 2.95273 8.30659 3.33833 9.46339 3.78829C9.97761 3.98082 10.1705 4.04535 10.2993 4.17388C10.5559 4.30224 10.6847 4.55957 10.6847 4.81637C10.6847 5.33069 10.2993 5.71646 9.72045 5.71646C9.14143 5.71646 8.62765 5.39513 8.3705 4.88082L7.59912 5.6522C8.17788 6.48775 8.8849 6.87335 9.78481 6.87335C11.0702 6.87335 11.9697 6.0378 11.9697 4.81637C11.9699 3.72393 11.5845 3.27397 10.1704 2.75966Z" fill="#E7E8E3"/>
<path fill-rule="evenodd" clip-rule="evenodd" d="M39.4165 2.18116C39.4165 3.14507 38.9021 3.78809 37.9383 3.98063L39.9306 6.61636H38.4521L36.717 4.10925H36.524V6.61636H35.3027V0.316895H37.1669C38.5808 0.316895 39.4165 1.02436 39.4165 2.18116ZM36.5241 3.20925H36.9095C37.681 3.20925 38.131 2.88809 38.131 2.24561C38.131 1.60241 37.6809 1.28116 36.9095 1.28116H36.5241V3.20925Z" fill="#E7E8E3"/>
</svg>
