<svg width="8" height="15" viewBox="0 0 8 15" fill="none" xmlns="http://www.w3.org/2000/svg">
<path fill-rule="evenodd" clip-rule="evenodd" d="M5.72171 0C3.58781 0 2.20838 1.42865 2.20838 3.63942V5.31769H0.298286C0.133905 5.31769 0 5.45212 0 5.61885V8.05058C0 8.21654 0.133905 8.35173 0.298286 8.35173H2.20838V14.4869C2.20838 14.6529 2.34229 14.7881 2.50743 14.7881H4.99848C5.16362 14.7881 5.29752 14.6529 5.29752 14.4869V8.35173H7.53048C7.69562 8.35173 7.82895 8.21654 7.82895 8.05058L7.83029 5.61885C7.83029 5.53923 7.79829 5.46269 7.74248 5.40558C7.68667 5.34923 7.61086 5.31769 7.53124 5.31769H5.29752V3.895C5.29752 3.21135 5.45905 2.86423 6.34076 2.86423L7.62057 2.86346C7.78571 2.86346 7.91886 2.72827 7.91886 2.56231V0.305C7.91886 0.138077 7.78571 0.00365385 7.62133 0.00288462L5.72171 0Z" fill="#C4A676"/>
</svg>
