<svg width="15" height="16" viewBox="0 0 15 16" fill="none" xmlns="http://www.w3.org/2000/svg">
<path fill-rule="evenodd" clip-rule="evenodd" d="M12.5053 6.4V4.4816H11.2405V6.4H9.34737V7.6816H11.2405V9.6H12.5053V7.6816H14.3984V6.4H12.5053ZM7.64211 8.5752L6.94816 8.0624C6.69474 7.872 6.44211 7.616 6.44211 7.1688C6.44211 6.7184 6.75711 6.3376 7.07447 6.144C7.89474 5.5032 8.715 4.8 8.715 3.3904C8.715 2.0472 7.89474 1.2816 7.45342 0.8968H8.52711L9.28579 0H5.36921C2.59026 0 1.2 1.7904 1.2 3.7128C1.2 5.184 2.33763 6.784 4.35789 6.784H4.86316C4.79842 6.9752 4.61053 7.2968 4.61053 7.616C4.61053 8.256 4.86316 8.5128 5.17816 8.8968C4.29553 8.9592 2.65184 9.1528 1.45263 9.9184C0.314211 10.6248 0 11.584 0 12.2872C0 13.7592 1.32632 15.1688 4.16921 15.1688C7.58053 15.1688 9.22105 13.2472 9.22105 11.3904C9.22105 10.0472 8.52711 9.344 7.64211 8.5752ZM2.84368 2.7528C2.84368 1.344 3.66395 0.7032 4.54895 0.7032C6.18947 0.7032 7.07447 2.944 7.07447 4.2248C7.07447 5.8872 5.74816 6.2096 5.24289 6.2096C3.66395 6.2096 2.84368 4.2248 2.84368 2.7528ZM5.11579 14.272C3.03158 14.272 1.70526 13.3128 1.70526 11.9032C1.70526 10.4968 2.97 10.0472 3.34579 9.856C4.16921 9.6 5.24289 9.5376 5.43079 9.5376H5.87447C7.38868 10.6248 8.02105 11.072 8.02105 12.0968C8.02105 13.3128 6.82184 14.272 5.11579 14.272Z" fill="#C4A676"/>
</svg>
