<svg width="31" height="32" viewBox="0 0 31 32" fill="none" xmlns="http://www.w3.org/2000/svg">
<path d="M14.4274 20.8496C14.2367 21.0501 13.9193 21.0501 13.7219 20.8496C13.5312 20.6559 13.5312 20.3334 13.7219 20.1401L17.2995 16.5058H5.49393C5.21874 16.5054 5 16.2832 5 16.0036C5 15.7241 5.21874 15.4946 5.49393 15.4946H17.2995L13.7219 11.8671C13.5312 11.6666 13.5312 11.3437 13.7219 11.1504C13.9193 10.9499 14.2372 10.9499 14.4274 11.1504L18.852 15.645C19.0493 15.8388 19.0493 16.1612 18.852 16.3545L14.4274 20.8496Z" fill="white"/>
<path fill-rule="evenodd" clip-rule="evenodd" d="M14.9815 0C8.17262 0 2.38249 4.25493 0.0640798 10.2389C0.0523329 10.2635 0.0427218 10.2891 0.0341786 10.3157C-0.0149447 10.4853 -0.00319778 10.5675 0.020296 10.6464C0.0811661 10.8533 0.306492 11.0123 0.535022 11.0123C0.763553 11.0123 0.953638 10.8672 1.03159 10.6667H1.03266C3.18982 5.0624 8.62114 1.06667 14.9815 1.06667C23.2257 1.06667 29.9321 7.76533 29.9321 16C29.9321 24.2347 23.2257 30.9333 14.9815 30.9333C8.62435 30.9333 3.19622 26.9419 1.03693 21.3429V21.3419C1.03587 21.3387 1.03159 21.3333 1.03159 21.3333C0.948299 21.1467 0.763553 21.0165 0.544634 21.0165C0.32785 21.0165 0.127086 21.1403 0.0587403 21.3333C0.0288391 21.4219 -0.00426568 21.5829 0.0437897 21.7099C0.0534008 21.7376 0.0630119 21.7653 0.0768945 21.7909C2.40278 27.7589 8.18437 32 14.9815 32C23.828 32 31 24.8363 31 16C31 7.16373 23.828 0 14.9815 0Z" fill="white"/>
</svg>
