<svg width="18" height="14" viewBox="0 0 18 14" fill="none" xmlns="http://www.w3.org/2000/svg">
<path fill-rule="evenodd" clip-rule="evenodd" d="M2.20112 0H15.8026C17.0168 0 18.0037 1.01251 18 2.2534V11.7504C18 12.9913 17.013 14 15.7989 14H2.20112C0.986964 14 0 12.9913 0 11.7504V2.24959C0 1.0087 0.986964 0 2.20112 0ZM15.8026 12.9723C16.4618 12.9723 16.9981 12.4241 16.9981 11.7504H16.9944V2.2534C16.9944 1.57966 16.4581 1.03154 15.7989 1.03154H2.20112C1.5419 1.03154 1.00559 1.57966 1.00559 2.2534V11.7504C1.00559 12.4241 1.5419 12.9723 2.20112 12.9723H15.8026Z" fill="#C4A676"/>
<path d="M10.8973 6.87446L15.2556 2.6847C15.4584 2.48707 15.4769 2.1511 15.2925 1.92975C15.1082 1.71236 14.7947 1.69259 14.5883 1.89022L8.57806 7.67288L7.40552 6.55034C7.40183 6.54639 7.39814 6.54244 7.39814 6.53849C7.37233 6.51082 7.34652 6.4871 7.31702 6.46339L2.54574 1.88627C2.33925 1.68864 2.02584 1.7084 1.84148 1.92975C1.65712 2.1511 1.67555 2.48707 1.88204 2.6847L6.29197 6.91003L1.90047 11.3172C1.70136 11.5188 1.6903 11.8547 1.87835 12.0721C1.97791 12.1828 2.11065 12.2421 2.24339 12.2421C2.36506 12.2421 2.48674 12.1947 2.58261 12.0998L7.04048 7.62941L8.24989 8.78752C8.34576 8.87843 8.46375 8.92191 8.58174 8.92191C8.69974 8.92191 8.82141 8.87448 8.9136 8.78357L10.1562 7.58988L14.5883 12.1038C14.6841 12.2026 14.8095 12.25 14.9312 12.25C15.0639 12.25 15.193 12.1947 15.2925 12.084C15.4806 11.8706 15.4732 11.5306 15.2741 11.329L10.8973 6.87446Z" fill="#C4A676"/>
</svg>
