<svg width="38" height="10" viewBox="0 0 38 10" fill="none" xmlns="http://www.w3.org/2000/svg">
<path fill-rule="evenodd" clip-rule="evenodd" d="M35.7466 1.61346V0.480718H35.3252V0.329346H36.3399V0.480718H35.9174V1.61346H35.7466Z" fill="white"/>
<path fill-rule="evenodd" clip-rule="evenodd" d="M36.5083 1.61346V0.329346H36.7612L37.0675 1.23797C37.095 1.32189 37.1158 1.3864 37.1269 1.4268C37.1436 1.38072 37.1665 1.3117 37.1971 1.2215L37.5073 0.329346H37.7354V1.61346H37.5718V0.539738L37.1963 1.61346H37.0428L36.672 0.526993V1.61346H36.5083Z" fill="white"/>
<path fill-rule="evenodd" clip-rule="evenodd" d="M25.771 1.24218C25.6383 0.986883 25.4418 0.778451 25.1873 0.61904C24.9275 0.457863 24.6212 0.346295 24.2669 0.280804C23.9124 0.216099 23.4963 0.182373 23.0183 0.182373H20.8057C20.5771 0.182373 20.3502 0.363353 20.2996 0.58551L18.803 7.06904C18.7512 7.2912 18.8963 7.47237 19.123 7.47237H20.1851C20.4134 7.47237 20.6406 7.2912 20.693 7.06904L21.0563 5.49767C21.1069 5.27649 21.3357 5.09414 21.5624 5.09414H21.8669C23.1618 5.09414 24.1692 4.82943 24.8914 4.29786C25.6118 3.76531 25.9724 3.06629 25.9724 2.19904C25.9724 1.81669 25.9057 1.49884 25.771 1.24218ZM23.4822 3.36178C23.1626 3.59394 22.7187 3.7112 22.1449 3.7112H21.882C21.6536 3.7112 21.5096 3.52924 21.561 3.30747L21.879 1.93139C21.9302 1.71041 22.1579 1.52865 22.3857 1.52865H22.7328C23.139 1.52865 23.4453 1.59728 23.6518 1.73492C23.8585 1.8708 23.9606 2.0808 23.9606 2.36394C23.9606 2.79571 23.8012 3.12806 23.4822 3.36178Z" fill="white"/>
<path fill-rule="evenodd" clip-rule="evenodd" d="M28.6765 7.47253H30.0088C30.2363 7.47253 30.4649 7.29116 30.5159 7.069L31.2884 3.73116C31.3075 3.65273 31.3233 3.56136 31.3331 3.45567C31.3447 3.35136 31.3522 3.26645 31.3522 3.20273C31.3522 2.72842 31.1496 2.3792 30.7476 2.15469C30.3443 1.929 29.7157 1.81665 28.8563 1.81665C28.4284 1.81665 28.001 1.8492 27.5725 1.91489C27.1425 1.98136 26.8257 2.04057 26.62 2.09273L26.4404 3.00292C26.3967 3.22626 26.4335 3.409 26.5224 3.409C26.6963 3.34489 26.9582 3.26371 27.3069 3.16508C27.6576 3.06704 27.9765 3.01763 28.2643 3.01763C28.6906 3.01763 29.0106 3.06351 29.2247 3.15469C29.4388 3.24704 29.5467 3.40645 29.5467 3.63312C29.5467 3.68724 29.5398 3.73802 29.5308 3.78332C29.5194 3.82743 29.5114 3.86038 29.5075 3.88038C28.9008 3.91606 28.3361 3.97155 27.8135 4.04685C27.2941 4.12155 26.8451 4.2443 26.4678 4.41391C26.0661 4.59469 25.7625 4.83469 25.5575 5.13724C25.3531 5.43998 25.25 5.80763 25.25 6.24234C25.25 6.65391 25.3945 6.989 25.6829 7.24489C25.9714 7.50155 26.3445 7.6292 26.7994 7.6292C27.0827 7.6292 27.3039 7.609 27.4643 7.56959C27.6235 7.5294 27.7953 7.47096 27.9765 7.39508C28.11 7.33606 28.2561 7.2543 28.4125 7.15096C28.5678 7.049 28.7025 6.95979 28.8129 6.88704L28.6765 7.47253ZM29.0088 6.03998C28.8371 6.1643 28.6512 6.26626 28.4549 6.34665C28.259 6.42704 28.0745 6.46763 27.9024 6.46763C27.6386 6.46763 27.4373 6.4294 27.2992 6.35155C27.1618 6.27606 27.0924 6.14391 27.0924 5.95508C27.0924 5.74077 27.1435 5.56743 27.2492 5.43704C27.3522 5.30743 27.5043 5.20665 27.7002 5.13489C27.8925 5.06626 28.1247 5.01508 28.3975 4.97802C28.671 4.94292 28.9635 4.91214 29.2767 4.88547L29.0088 6.03998Z" fill="white"/>
<path fill-rule="evenodd" clip-rule="evenodd" d="M34.7398 0.240723L33.2268 7.06994C33.1759 7.2917 32.9463 7.47386 32.7192 7.47386H31.7725C31.5455 7.47386 31.4 7.2917 31.4519 7.06994L32.8721 0.64386C32.9233 0.421899 33.1521 0.240723 33.3796 0.240723H34.7398Z" fill="white"/>
<path fill-rule="evenodd" clip-rule="evenodd" d="M7.07022 1.25384C6.9363 0.998746 6.7414 0.79051 6.48669 0.631491C6.2263 0.470314 5.92042 0.358354 5.5661 0.292667C5.21061 0.227569 4.79512 0.194824 4.31728 0.194824H2.10532C1.87689 0.194824 1.64944 0.375216 1.59767 0.597569L0.102181 7.0809C0.0508084 7.30345 0.195122 7.48463 0.422965 7.48463H1.48512C1.71277 7.48463 1.941 7.30345 1.99159 7.0811L2.35571 5.50953C2.40708 5.28835 2.63453 5.10659 2.86277 5.10659H3.16571C4.46081 5.10659 5.46846 4.84169 6.18983 4.30953C6.911 3.77816 7.27179 3.07875 7.27179 2.2109C7.27179 1.82914 7.20512 1.51071 7.07022 1.25384ZM4.781 3.37306C4.46179 3.6058 4.01767 3.72345 3.44434 3.72345H3.1812C2.95297 3.72345 2.80904 3.5411 2.85904 3.31933L3.17826 1.94306C3.23022 1.72149 3.45806 1.54012 3.68493 1.54012H4.03257C4.43806 1.54012 4.74512 1.60914 4.9512 1.74679C5.15708 1.88286 5.26042 2.09267 5.26042 2.37718C5.26042 2.80757 5.09983 3.13992 4.781 3.37306Z" fill="white"/>
<path fill-rule="evenodd" clip-rule="evenodd" d="M9.97638 7.48484H11.3083C11.5358 7.48484 11.7642 7.30347 11.8156 7.08111L12.5872 3.74327C12.6072 3.66445 12.6234 3.57347 12.6323 3.46798C12.6442 3.36386 12.6509 3.27915 12.6509 3.21484C12.6509 2.74053 12.4487 2.3917 12.0466 2.1666C11.6446 1.94072 11.0138 1.82837 10.1544 1.82837C9.72775 1.82837 9.3001 1.86131 8.87167 1.92719C8.4405 1.99327 8.12344 2.05268 7.9201 2.10504L7.73952 3.01484C7.69579 3.23778 7.73265 3.42092 7.82187 3.42092C7.99638 3.357 8.25756 3.27484 8.60677 3.17719C8.95677 3.07876 9.2754 3.02935 9.56383 3.02935C9.98991 3.02935 10.3091 3.07543 10.5246 3.1666C10.7387 3.25896 10.8466 3.41817 10.8466 3.64562C10.8466 3.69974 10.8389 3.74994 10.8305 3.79445C10.8183 3.84033 10.8103 3.87229 10.807 3.89249C10.1999 3.92798 9.63618 3.98307 9.11363 4.05857C8.59305 4.13347 8.14501 4.257 7.76736 4.42582C7.36579 4.607 7.06226 4.84739 6.85658 5.14935C6.65128 5.4519 6.54834 5.81994 6.54834 6.25425C6.54834 6.66641 6.69324 7.00131 6.98285 7.2568C7.27089 7.51308 7.64363 7.64209 8.09873 7.64209C8.38167 7.64209 8.60363 7.62092 8.76344 7.58151C8.92305 7.54072 9.09422 7.48386 9.2754 7.4068C9.40912 7.34798 9.5554 7.2666 9.71207 7.16268C9.86756 7.05994 10.0021 6.97249 10.1111 6.89857L9.97638 7.48484ZM10.3079 6.05209C10.135 6.17621 9.9503 6.27857 9.75422 6.35876C9.55697 6.43915 9.37403 6.47915 9.2005 6.47915C8.93854 6.47915 8.73716 6.44053 8.59834 6.36406C8.46069 6.28817 8.39265 6.15543 8.39265 5.96621C8.39265 5.75268 8.44285 5.57896 8.54716 5.44915C8.65167 5.32013 8.80324 5.21876 8.99991 5.14641C9.19246 5.07876 9.42461 5.02602 9.69716 4.99013C9.9703 4.95484 10.2634 4.92386 10.5748 4.89778L10.3079 6.05209Z" fill="white"/>
<path fill-rule="evenodd" clip-rule="evenodd" d="M18.0433 1.8208C17.8167 1.8208 17.5163 2.00296 17.3792 2.22453L15.5049 5.43688L14.9908 2.22962C14.9396 2.00708 14.7114 1.82551 14.4837 1.82551H13.5376C13.3094 1.82551 13.1645 2.00708 13.2169 2.22962L14.0365 7.52668C14.0514 7.64139 14.0663 7.73864 14.0806 7.81923L13.06 9.52688C12.9233 9.74884 12.9965 9.93041 13.2249 9.93041H14.3223C14.5504 9.93041 14.848 9.74884 14.9853 9.52688L19.5557 1.8208H18.0433Z" fill="white"/>
</svg>
