<svg width="40" height="36" viewBox="0 0 40 36" fill="none" xmlns="http://www.w3.org/2000/svg">
<path fill-rule="evenodd" clip-rule="evenodd" d="M31.1641 18.1549C30.084 18.1549 29.27 18.7187 28.722 19.8465C28.174 20.9742 27.9 22.6499 27.9 24.8736C27.9 27.6373 28.2256 29.7459 28.8769 31.1992C29.5281 32.6526 30.4731 33.3792 31.7121 33.3792C32.8716 33.3792 33.7372 32.8392 34.309 31.7591C34.8808 30.679 35.1667 29.0351 35.1667 26.8273C35.1667 23.8729 34.8411 21.689 34.1899 20.2753C33.5387 18.8617 32.5301 18.1549 31.1641 18.1549ZM31.568 15.7962C34.1888 15.7962 36.2496 16.6697 37.7506 18.4169C39.2516 20.1641 40.0021 22.5625 40.0021 25.6122C40.0021 28.5665 39.2119 30.9808 37.6315 32.8551C36.0511 34.7293 34.0458 35.6664 31.6156 35.6664C28.9789 35.6664 26.9022 34.7968 25.3853 33.0576C23.8684 31.3183 23.11 28.9477 23.11 25.9457C23.11 23.0073 23.9161 20.5811 25.5283 18.6671C27.1404 16.7531 29.1537 15.7962 31.568 15.7962ZM8.00529 2.52548C6.92521 2.52548 6.11119 3.10125 5.5632 4.25281C5.01522 5.40437 4.74123 7.10786 4.74123 9.36334C4.74123 12.0635 5.07478 14.1363 5.74189 15.5817C6.409 17.0271 7.36201 17.7498 8.60093 17.7498C9.76043 17.7498 10.6261 17.2019 11.1979 16.1059C11.7697 15.0099 12.0556 13.3501 12.0556 11.1264C12.0556 8.21971 11.722 6.05957 11.0549 4.64593C10.3878 3.23229 9.37128 2.52548 8.00529 2.52548ZM29.0907 0L31.7114 1.11979C27.0258 9.01394 23.1066 15.673 19.9537 21.0973C16.8008 26.5215 13.9378 31.4891 11.3647 36L8.74388 34.9755L28.0185 2.04897C26.6367 3.06552 25.2707 3.83984 23.9206 4.37194C22.5705 4.90404 21.2839 5.17009 20.0609 5.17009C19.362 5.17009 18.6155 5.08273 17.8213 4.90801C17.0271 4.73329 16.2091 4.47915 15.3673 4.1456C15.8438 4.97155 16.2012 5.86896 16.4394 6.83786C16.6777 7.80676 16.7968 8.82329 16.7968 9.88749C16.7968 12.7942 15.9669 15.2045 14.3071 17.1185C12.6472 19.0324 10.5784 19.9894 8.1006 19.9894C5.63864 19.9894 3.67307 19.1317 2.20384 17.4163C0.734606 15.7009 0 13.4057 0 10.5308C0 7.43347 0.821964 4.94376 2.46592 3.06155C4.10987 1.17934 6.28192 0.238253 8.98213 0.238253C9.47452 0.238253 10.0106 0.305757 10.5903 0.440768C11.1701 0.575778 11.7856 0.786233 12.4368 1.07214C13.8822 1.58041 15.2521 1.96558 16.5467 2.22766C17.8412 2.48974 19.0126 2.62078 20.0609 2.62078C21.4745 2.62078 22.9596 2.39444 24.5162 1.94176C26.0728 1.48908 27.5976 0.841831 29.0907 0Z" fill="#F5F5F5"/>
</svg>
