<svg width="16" height="16" viewBox="0 0 16 16" fill="none" xmlns="http://www.w3.org/2000/svg">
<path fill-rule="evenodd" clip-rule="evenodd" d="M12.2521 8.98208C12.6986 8.98208 13.1198 9.17563 13.469 9.53763L15.4456 11.5125C15.8092 11.871 16 12.2975 16 12.7419C16 13.1828 15.8128 13.6129 15.4564 13.9821C15.3015 14.1434 15.1431 14.2975 14.9883 14.4444C14.9715 14.4606 14.9548 14.4768 14.9381 14.4928C14.7297 14.6935 14.5316 14.8841 14.3583 15.0932C14.3565 15.0968 14.3538 15.0995 14.3511 15.1021C14.3484 15.1048 14.3457 15.1075 14.3439 15.1111C13.7966 15.7025 13.0982 16 12.2665 16C12.1945 16 12.1153 15.9964 12.0397 15.9928C10.8048 15.914 9.69953 15.4516 8.87147 15.0609C6.70411 14.0179 4.80677 12.5376 3.22985 10.6631C1.93016 9.10753 1.05889 7.65591 0.475649 6.08961C0.238031 5.45161 -0.0715918 4.4767 0.0148146 3.43011C0.0724188 2.78136 0.335238 2.22222 0.796072 1.76344L2.02016 0.53405L2.02736 0.526882C2.38739 0.182796 2.81222 0 3.25145 0C3.69069 0 4.10832 0.182796 4.45754 0.526882C4.69156 0.741935 4.91838 0.971326 5.13439 1.19355C5.2424 1.30824 5.35761 1.42294 5.46922 1.53405L6.45209 2.51254C7.20815 3.26523 7.20815 4.24014 6.45209 4.99283C6.40169 5.04301 6.35128 5.09409 6.30088 5.14516C6.25048 5.19624 6.20007 5.24731 6.14967 5.29749C6.12397 5.32342 6.09821 5.34945 6.07236 5.37556C5.83026 5.62014 5.58115 5.87181 5.31441 6.1147C5.53402 6.59857 5.83645 7.07527 6.28648 7.64158C7.21535 8.77778 8.18382 9.65591 9.2495 10.3297C9.35391 10.3943 9.47632 10.4552 9.60593 10.5197C9.63644 10.5355 9.66737 10.5513 9.69857 10.5672C9.7594 10.5983 9.82127 10.6299 9.88315 10.6631L11.0208 9.53405C11.3845 9.17204 11.8093 8.98208 12.2521 8.98208ZM14.4008 13.6695C14.5249 13.5494 14.6426 13.4354 14.7579 13.3118C15.1251 12.9319 15.1251 12.5556 14.7543 12.19L12.7706 10.2151L12.7634 10.2079C12.6518 10.086 12.4681 9.94624 12.2449 9.94624C12.0181 9.94624 11.8237 10.0932 11.7013 10.2151L10.47 11.4409C10.4088 11.5018 10.2216 11.6882 9.92275 11.6882C9.80394 11.6882 9.68873 11.6595 9.56632 11.5986C9.55912 11.595 9.55192 11.5905 9.54472 11.586C9.53752 11.5815 9.53032 11.5771 9.52312 11.5735C9.41871 11.509 9.2963 11.448 9.16669 11.3835L9.16666 11.3835C9.02266 11.3118 8.87146 11.2366 8.72386 11.1434C7.56817 10.4158 6.5205 9.46595 5.52682 8.24731L5.52322 8.24373C4.97598 7.55197 4.61596 6.97133 4.36034 6.35484L4.34954 6.32258C4.28473 6.11828 4.22713 5.8172 4.53675 5.50896C4.53907 5.50433 4.5429 5.5012 4.54726 5.49763C4.54965 5.49567 4.5522 5.49358 4.55475 5.49104C4.86797 5.21147 5.156 4.92473 5.45842 4.61649C5.52789 4.54971 5.59576 4.48135 5.66416 4.41246C5.69857 4.37781 5.7331 4.34303 5.76804 4.30824C6.14967 3.92832 6.14967 3.57706 5.76804 3.19713L4.78517 2.21864C4.72801 2.15996 4.67086 2.10217 4.61415 2.04482C4.55654 1.98656 4.49938 1.92876 4.44314 1.87097C4.22353 1.64516 4.01471 1.43369 3.79509 1.22939L3.78429 1.21864C3.66909 1.10394 3.48547 0.967742 3.25866 0.967742C3.07504 0.967742 2.88783 1.05735 2.71141 1.22222L1.48372 2.44444C1.1849 2.74194 1.02289 3.08961 0.986887 3.50896C0.932883 4.16487 1.05529 4.86022 1.39012 5.75269C1.93376 7.21505 2.75462 8.57706 3.98231 10.0502C5.46922 11.8172 7.25855 13.2115 9.2963 14.1935C10.0416 14.5484 11.0352 14.9642 12.1045 15.0323C12.1585 15.0358 12.2161 15.0358 12.2701 15.0358C12.8318 15.0358 13.2602 14.853 13.6238 14.466C13.847 14.2043 14.0847 13.9713 14.3187 13.7491C14.3464 13.7222 14.3737 13.6957 14.4008 13.6695Z" fill="#C4A676"/>
</svg>
