<svg width="17" height="14" viewBox="0 0 17 14" fill="none" xmlns="http://www.w3.org/2000/svg">
<path fill-rule="evenodd" clip-rule="evenodd" d="M14.9822 2.15473C15.7017 1.72888 16.2542 1.05491 16.5143 0.25155C15.841 0.645678 15.0953 0.932105 14.3016 1.08623C13.6661 0.417667 12.7605 0 11.7583 0C9.83413 0 8.2739 1.5402 8.2739 3.43987C8.2739 3.70947 8.30483 3.97203 8.36429 4.22391C5.46849 4.0803 2.90099 2.71088 1.18254 0.62955C0.882549 1.13773 0.710724 1.72859 0.710724 2.35908C0.710724 3.55244 1.32571 4.60543 2.26071 5.22233C1.68947 5.20444 1.15223 5.04962 0.682529 4.79201C0.682198 4.80642 0.682198 4.82083 0.682198 4.83536C0.682198 6.50206 1.88335 7.89227 3.47725 8.20842C3.18489 8.28689 2.87702 8.32914 2.55925 8.32914C2.33476 8.32914 2.11642 8.30753 1.90359 8.26725C2.34704 9.63396 3.6339 10.6286 5.15863 10.6562C3.96606 11.579 2.46367 12.129 0.831217 12.129C0.549888 12.129 0.27258 12.1127 0 12.0806C1.54194 13.0569 3.37342 13.6263 5.34115 13.6263C11.7502 13.6263 15.2548 8.38461 15.2548 3.83866C15.2548 3.68965 15.2514 3.54126 15.2448 3.39365C15.9257 2.90868 16.5164 2.3028 16.9835 1.61295C16.3586 1.88656 15.6871 2.07155 14.9822 2.15473Z" fill="#C4A676"/>
</svg>
