<svg width="30" height="10" viewBox="0 0 30 10" fill="none" xmlns="http://www.w3.org/2000/svg">
<path fill-rule="evenodd" clip-rule="evenodd" d="M13.016 9.54991H10.5898L12.1065 0.230225H14.5327L13.016 9.54991Z" fill="white"/>
<path fill-rule="evenodd" clip-rule="evenodd" d="M8.54867 0.230225L6.23534 6.64022L5.96153 5.25991V5.26038L5.14566 1.06943C5.14566 1.06943 5.04661 0.230225 3.99471 0.230225H0.170104L0.125977 0.388161C0.125977 0.388161 1.2955 0.631018 2.6636 1.4534L4.77121 9.54991H7.29963L11.1606 0.230225H8.54867Z" fill="white"/>
<path fill-rule="evenodd" clip-rule="evenodd" d="M24.9641 6.25356L26.2387 2.76515L26.9565 6.25356H24.9641ZM27.6339 9.54991H29.8616L27.9193 0.230225H25.9689C25.0678 0.230225 24.8481 0.92451 24.8481 0.92451L21.23 9.54991H23.759L24.2641 8.16578H27.3493L27.6339 9.54991Z" fill="white"/>
<path fill-rule="evenodd" clip-rule="evenodd" d="M21.419 2.47118L21.7647 0.469752C21.7647 0.469752 20.6966 0.0637207 19.583 0.0637207C18.3787 0.0637207 15.5193 0.589911 15.5193 3.14896C15.5193 5.55674 18.876 5.58674 18.876 6.8507C18.876 8.11515 15.865 7.88928 14.8719 7.09166L14.5107 9.18356C14.5107 9.18356 15.5944 9.71023 17.2495 9.71023C18.9053 9.71023 21.4036 8.85277 21.4036 6.51991C21.4036 4.0969 18.0174 3.8707 18.0174 2.81753C18.0174 1.76372 20.3811 1.89912 21.419 2.47118Z" fill="white"/>
<path fill-rule="evenodd" clip-rule="evenodd" d="M5.96153 5.26038L5.1455 1.06927C5.1455 1.06927 5.04661 0.230225 3.99471 0.230225H0.170104L0.125977 0.388161C0.125977 0.388161 1.9636 0.769114 3.72629 2.19578C5.41169 3.56022 5.96153 5.26038 5.96153 5.26038Z" fill="#FFA61F"/>
</svg>
