<svg width="36" height="16" viewBox="0 0 36 16" fill="none" xmlns="http://www.w3.org/2000/svg">
<path d="M0.0654297 11.4576L0.271507 10.515H0.927122L1.09097 9.76271L2.63147 8.88647L2.27089 10.5151H3.09035L2.88428 11.4577H2.0602L1.62474 13.4271C1.54662 13.7841 1.50762 13.9877 1.50762 14.0378C1.50762 14.1352 1.54039 14.2112 1.60593 14.2657C1.67147 14.3203 1.79008 14.3476 1.96178 14.3476C2.02108 14.3476 2.16935 14.3372 2.40658 14.3166L2.19589 15.2593C1.96478 15.3035 1.72766 15.3256 1.4842 15.3256C1.00962 15.3256 0.664853 15.2394 0.44943 15.0667C0.234122 14.8941 0.126353 14.6544 0.126353 14.3476C0.126353 14.2031 0.184045 13.8697 0.299545 13.3474L0.716314 11.4576H0.0654297Z" fill="white"/>
<path d="M3.88618 10.5152H5.14099L4.93964 11.4268C5.40787 10.7454 5.9151 10.4045 6.46145 10.4045C6.65495 10.4045 6.86253 10.4502 7.08418 10.5417L6.5691 11.5817C6.44737 11.5405 6.3178 11.5197 6.18049 11.5197C5.94949 11.5197 5.71456 11.6023 5.47583 11.7676C5.23699 11.9328 5.05041 12.1534 4.91622 12.4293C4.78203 12.7052 4.64933 13.1425 4.51826 13.7415L4.19045 15.2152H2.84668L3.88618 10.5152Z" fill="white"/>
<path fill-rule="evenodd" clip-rule="evenodd" d="M7.2387 11.741L8.54981 11.8473C8.59966 11.6763 8.69416 11.5441 8.83308 11.4511C8.97189 11.3582 9.16146 11.3117 9.40193 11.3117C9.62981 11.3117 9.8015 11.3575 9.917 11.4489C10.0325 11.5405 10.0903 11.654 10.0903 11.7896C10.0903 11.8959 10.0622 12.0376 10.006 12.2146C9.79066 12.2854 9.36293 12.3459 8.723 12.3961C7.96446 12.4522 7.43773 12.6145 7.1427 12.8829C6.84766 13.1514 6.7002 13.5098 6.7002 13.9583C6.7002 14.3596 6.83439 14.6877 7.10289 14.943C7.37139 15.1983 7.71166 15.3258 8.1237 15.3258C8.38273 15.3258 8.64027 15.2705 8.89631 15.1598C9.15223 15.0491 9.3785 14.8906 9.57523 14.684C9.5877 14.867 9.62046 15.044 9.67354 15.2152H10.9799C10.905 14.9703 10.8675 14.7475 10.8675 14.5468C10.8675 14.3227 10.9331 13.9302 11.0643 13.3697C11.2234 12.6911 11.3163 12.2722 11.3428 12.1128C11.3693 11.9535 11.3826 11.803 11.3826 11.6614C11.3826 11.3103 11.2296 11.0131 10.9237 10.7697C10.6177 10.5263 10.1448 10.4045 9.50496 10.4045C8.88996 10.4045 8.396 10.5226 8.02296 10.7585C7.64993 10.9946 7.38858 11.3221 7.2387 11.741ZM9.50496 13.082C9.63916 13.0644 9.74681 13.0451 9.82804 13.0245L9.79054 13.1925C9.72189 13.5023 9.64308 13.7303 9.55412 13.8762C9.46516 14.0223 9.33085 14.1417 9.15143 14.2347C8.97189 14.3276 8.7807 14.3741 8.57785 14.3741C8.39358 14.3741 8.24543 14.3232 8.13304 14.2215C8.02066 14.1197 7.96446 13.9951 7.96446 13.8475C7.96446 13.6676 8.03773 13.5245 8.1845 13.4183C8.39058 13.2708 8.83077 13.1588 9.50496 13.082Z" fill="white"/>
<path d="M13.0454 10.5151H14.3189L14.1878 11.1258C14.5062 10.8662 14.8035 10.6811 15.0798 10.5705C15.3561 10.4598 15.6471 10.4045 15.9532 10.4045C16.362 10.4045 16.6842 10.5152 16.9201 10.7364C17.1557 10.9577 17.2735 11.2513 17.2735 11.6171C17.2735 11.7825 17.2219 12.0952 17.119 12.5554L16.5338 15.2152H15.1899L15.7799 12.5465C15.8673 12.1483 15.9111 11.9109 15.9111 11.834C15.9111 11.6718 15.8603 11.5442 15.7587 11.4513C15.6574 11.3584 15.5161 11.3119 15.3351 11.3119C15.1383 11.3119 14.9198 11.3902 14.6794 11.5464C14.4391 11.703 14.2502 11.9093 14.1129 12.166C14.013 12.349 13.9007 12.7222 13.7757 13.2857L13.3496 15.2152H12.0059L13.0454 10.5151Z" fill="white"/>
<path d="M17.6714 13.9007L18.9732 13.706C19.0885 13.9657 19.2322 14.1493 19.404 14.257C19.5756 14.3648 19.8098 14.4184 20.1062 14.4184C20.4122 14.4184 20.6573 14.3536 20.8415 14.2238C20.9694 14.1353 21.0333 14.0275 21.0333 13.9007C21.0333 13.8152 21.0006 13.7385 20.935 13.6705C20.8664 13.6057 20.6806 13.526 20.3778 13.4317C19.5661 13.1779 19.0636 12.9773 18.8701 12.8297C18.5673 12.5995 18.416 12.2986 18.416 11.9269C18.416 11.5552 18.5627 11.2352 18.8562 10.9666C19.265 10.5919 19.8722 10.4045 20.6776 10.4045C21.3174 10.4045 21.8013 10.5152 22.129 10.7364C22.4567 10.9577 22.6643 11.2572 22.7519 11.6348L21.5109 11.8383C21.4454 11.6674 21.3392 11.539 21.1927 11.4534C20.9928 11.3383 20.7525 11.2808 20.4715 11.2808C20.1907 11.2808 19.9885 11.3251 19.8652 11.4136C19.7418 11.5021 19.6802 11.6038 19.6802 11.7189C19.6802 11.837 19.7427 11.9344 19.8675 12.011C19.9455 12.0582 20.1968 12.1408 20.6213 12.2589C21.2769 12.4388 21.7154 12.6159 21.937 12.7899C22.2492 13.0348 22.4053 13.3299 22.4053 13.6751C22.4053 14.1206 22.207 14.507 21.8107 14.8346C21.4142 15.1621 20.8555 15.3258 20.1344 15.3258C19.4163 15.3258 18.8615 15.2012 18.4697 14.9518C18.0781 14.7025 17.812 14.3522 17.6714 13.9007Z" fill="white"/>
<path d="M26.643 10.515L26.437 11.4444H25.4865L24.653 15.215H23.3091L24.1426 11.4444H23.3935L23.5995 10.515H24.3488L24.4565 10.0326C24.5438 9.63738 24.6265 9.37026 24.7045 9.23157C24.8108 9.0428 24.9692 8.89315 25.1798 8.78249C25.3906 8.67172 25.666 8.61646 26.0063 8.61646C26.4184 8.61646 26.8522 8.6873 27.3081 8.82888L27.0458 9.73615C26.7242 9.63299 26.4636 9.58119 26.264 9.58119C26.111 9.58119 25.997 9.62699 25.9221 9.71838C25.872 9.77746 25.8205 9.9323 25.7676 10.1831L25.6926 10.515H26.643Z" fill="white"/>
<path fill-rule="evenodd" clip-rule="evenodd" d="M27.8416 13.259H31.2129C31.2753 13.0142 31.3066 12.7384 31.3065 12.4314C31.3065 11.7912 31.1269 11.2933 30.768 10.9378C30.409 10.5823 29.9251 10.4045 29.3164 10.4045C28.3613 10.4045 27.626 10.7439 27.111 11.4223C26.7333 11.9239 26.5444 12.4963 26.5444 13.1394C26.5444 13.7973 26.7536 14.3262 27.1719 14.7259C27.5902 15.1257 28.1333 15.3256 28.8014 15.3256C29.2883 15.3256 29.7275 15.2113 30.1195 14.9827C30.5111 14.7541 30.8242 14.4112 31.0583 13.9538L29.8549 13.7635C29.6052 14.2001 29.2571 14.4184 28.8108 14.4184C28.5391 14.4184 28.3089 14.3227 28.12 14.1309C27.9312 13.9391 27.8369 13.6869 27.8369 13.3741C27.8369 13.3475 27.8384 13.3092 27.8416 13.259ZM30.0844 12.3563C30.0844 12.3857 30.0828 12.4286 30.0797 12.4846H27.9773C28.0553 12.0982 28.2045 11.8061 28.4245 11.6083C28.6445 11.4107 28.8934 11.3118 29.1714 11.3118C29.4492 11.3118 29.6708 11.3988 29.8362 11.5729C30.0017 11.747 30.0844 12.0082 30.0844 12.3563Z" fill="white"/>
<path d="M32.6694 10.5152H33.9242L33.7228 11.4268C34.1911 10.7454 34.6984 10.4045 35.2445 10.4045C35.438 10.4045 35.6456 10.4502 35.8674 10.5417L35.3523 11.5817C35.2305 11.5405 35.101 11.5197 34.9637 11.5197C34.7326 11.5197 34.4978 11.6023 34.2589 11.7676C34.0202 11.9328 33.8335 12.1534 33.6994 12.4293C33.5651 12.7052 33.4325 13.1425 33.3013 13.7415L32.9737 15.2152H31.6299L32.6694 10.5152Z" fill="white"/>
<path d="M6.72369 8.61862H5.05234L4.73042 4.6637L2.72481 8.61862H1.07815L0.254883 2.40527H1.83334L2.29142 6.57089L4.34042 2.40527H5.95604L6.17896 6.57089L8.21561 2.40527H9.99842L6.72369 8.61862Z" fill="white"/>
<path fill-rule="evenodd" clip-rule="evenodd" d="M13.3843 0.041748H11.6076L11.2734 1.56286H13.05L13.3843 0.041748ZM12.8643 2.40529H11.0877L9.71338 8.61863H11.4901L12.8643 2.40529Z" fill="white"/>
<path d="M14.5109 2.40523H16.1698L15.9036 3.61053C16.5227 2.70949 17.1933 2.25903 17.9155 2.25903C18.1713 2.25903 18.4457 2.31961 18.7388 2.44042L18.0578 3.81534C17.8968 3.76065 17.7256 3.73342 17.5439 3.73342C17.2385 3.73342 16.928 3.84269 16.6124 4.06099C16.2966 4.27953 16.0501 4.57099 15.8726 4.93573C15.6951 5.30046 15.5198 5.87865 15.3464 6.67042L14.9132 8.61869H13.1367L14.5109 2.40523Z" fill="white"/>
<path fill-rule="evenodd" clip-rule="evenodd" d="M20.1132 6.03231H24.5701C24.6526 5.70866 24.6939 5.34404 24.6939 4.93824C24.6939 4.09189 24.4566 3.43374 23.9821 2.96354C23.5074 2.4937 22.8679 2.25854 22.0631 2.25854C20.8003 2.25854 19.8284 2.70716 19.1475 3.60428C18.648 4.26751 18.3984 5.02408 18.3984 5.87435C18.3984 6.74412 18.6748 7.44324 19.2279 7.9717C19.7809 8.50028 20.499 8.76451 21.3822 8.76451C22.0259 8.76451 22.6066 8.61347 23.1246 8.31116C23.6426 8.00885 24.0562 7.55539 24.3659 6.95089L22.7749 6.69924C22.4447 7.27662 21.9846 7.5652 21.3946 7.5652C21.0356 7.5652 20.7312 7.43851 20.4816 7.18501C20.2317 6.93139 20.1069 6.59793 20.1069 6.18439C20.1069 6.14943 20.109 6.09878 20.1132 6.03231ZM23.0782 4.83889C23.0782 4.87789 23.0761 4.93443 23.0721 5.00851L20.2926 5.00862C20.3957 4.4977 20.5927 4.11151 20.8838 3.85016C21.1747 3.58893 21.5038 3.4582 21.8711 3.4582C22.2383 3.4582 22.5314 3.57335 22.7502 3.80331C22.9689 4.03351 23.0782 4.37874 23.0782 4.83889Z" fill="white"/>
<path d="M26.7046 2.65015V7.67376L30.6158 5.16184L26.7046 2.65015Z" fill="#73AADC"/>
<path d="M32.02 2.65015V7.67376L35.9312 5.16184L32.02 2.65015Z" fill="#73AADC"/>
</svg>
